<svg xmlns="http://www.w3.org/2000/svg" version="1.1" xmlns:xlink="http://www.w3.org/1999/xlink" xmlns:svgjs="http://svgjs.dev/svgjs" viewBox="0 0 800 800"><defs><linearGradient gradientTransform="rotate(270)" x1="50%" y1="0%" x2="50%" y2="100%" id="sssquiggly-grad"><stop stop-color="hsl(206, 75%, 49%)" stop-opacity="1" offset="0%"></stop><stop stop-color="#D7CDA" stop-opacity="1" offset="100%"></stop></linearGradient></defs><g stroke-width="2" stroke="#d7cdad" fill="none" stroke-linecap="round" transform="matrix(1,0,0,1,-5,335.8975143432617)"><path d="M10,10C28.75,15.208333333333334,60.416666666666664,44.166666666666664,100,35C139.58333333333334,25.833333333333336,158.33333333333331,-31.291666666666668,200,-34C241.66666666666669,-36.708333333333336,258.3333333333333,20.958333333333332,300,22C341.6666666666667,23.041666666666668,358.3333333333333,-34.416666666666664,400,-29C441.6666666666667,-23.583333333333336,458.3333333333333,43.208333333333336,500,48C541.6666666666666,52.791666666666664,558.3333333333334,-1.833333333333333,600,-6C641.6666666666666,-10.166666666666668,658.3333333333334,31.541666666666668,700,28C741.6666666666666,24.458333333333332,779.1666666666666,-12.375,800,-23"></path><path d="M10,10C28.75,15.208333333333334,60.416666666666664,44.166666666666664,100,35C139.58333333333334,25.833333333333336,158.33333333333331,-31.291666666666668,200,-34C241.66666666666669,-36.708333333333336,258.3333333333333,20.958333333333332,300,22C341.6666666666667,23.041666666666668,358.3333333333333,-34.416666666666664,400,-29C441.6666666666667,-23.583333333333336,458.3333333333333,43.208333333333336,500,48C541.6666666666666,52.791666666666664,558.3333333333334,-1.833333333333333,600,-6C641.6666666666666,-10.166666666666668,658.3333333333334,31.541666666666668,700,28C741.6666666666666,24.458333333333332,779.1666666666666,-12.375,800,-23" transform="matrix(1,0,0,1,0,114)"></path><path d="M10,10C28.75,15.208333333333334,60.416666666666664,44.166666666666664,100,35C139.58333333333334,25.833333333333336,158.33333333333331,-31.291666666666668,200,-34C241.66666666666669,-36.708333333333336,258.3333333333333,20.958333333333332,300,22C341.6666666666667,23.041666666666668,358.3333333333333,-34.416666666666664,400,-29C441.6666666666667,-23.583333333333336,458.3333333333333,43.208333333333336,500,48C541.6666666666666,52.791666666666664,558.3333333333334,-1.833333333333333,600,-6C641.6666666666666,-10.166666666666668,658.3333333333334,31.541666666666668,700,28C741.6666666666666,24.458333333333332,779.1666666666666,-12.375,800,-23" transform="matrix(1,0,0,1,0,95)"></path><path d="M10,10C28.75,15.208333333333334,60.416666666666664,44.166666666666664,100,35C139.58333333333334,25.833333333333336,158.33333333333331,-31.291666666666668,200,-34C241.66666666666669,-36.708333333333336,258.3333333333333,20.958333333333332,300,22C341.6666666666667,23.041666666666668,358.3333333333333,-34.416666666666664,400,-29C441.6666666666667,-23.583333333333336,458.3333333333333,43.208333333333336,500,48C541.6666666666666,52.791666666666664,558.3333333333334,-1.833333333333333,600,-6C641.6666666666666,-10.166666666666668,658.3333333333334,31.541666666666668,700,28C741.6666666666666,24.458333333333332,779.1666666666666,-12.375,800,-23" transform="matrix(1,0,0,1,0,76)"></path><path d="M10,10C28.75,15.208333333333334,60.416666666666664,44.166666666666664,100,35C139.58333333333334,25.833333333333336,158.33333333333331,-31.291666666666668,200,-34C241.66666666666669,-36.708333333333336,258.3333333333333,20.958333333333332,300,22C341.6666666666667,23.041666666666668,358.3333333333333,-34.416666666666664,400,-29C441.6666666666667,-23.583333333333336,458.3333333333333,43.208333333333336,500,48C541.6666666666666,52.791666666666664,558.3333333333334,-1.833333333333333,600,-6C641.6666666666666,-10.166666666666668,658.3333333333334,31.541666666666668,700,28C741.6666666666666,24.458333333333332,779.1666666666666,-12.375,800,-23" transform="matrix(1,0,0,1,0,57)"></path><path d="M10,10C28.75,15.208333333333334,60.416666666666664,44.166666666666664,100,35C139.58333333333334,25.833333333333336,158.33333333333331,-31.291666666666668,200,-34C241.66666666666669,-36.708333333333336,258.3333333333333,20.958333333333332,300,22C341.6666666666667,23.041666666666668,358.3333333333333,-34.416666666666664,400,-29C441.6666666666667,-23.583333333333336,458.3333333333333,43.208333333333336,500,48C541.6666666666666,52.791666666666664,558.3333333333334,-1.833333333333333,600,-6C641.6666666666666,-10.166666666666668,658.3333333333334,31.541666666666668,700,28C741.6666666666666,24.458333333333332,779.1666666666666,-12.375,800,-23" transform="matrix(1,0,0,1,0,38)"></path><path d="M10,10C28.75,15.208333333333334,60.416666666666664,44.166666666666664,100,35C139.58333333333334,25.833333333333336,158.33333333333331,-31.291666666666668,200,-34C241.66666666666669,-36.708333333333336,258.3333333333333,20.958333333333332,300,22C341.6666666666667,23.041666666666668,358.3333333333333,-34.416666666666664,400,-29C441.6666666666667,-23.583333333333336,458.3333333333333,43.208333333333336,500,48C541.6666666666666,52.791666666666664,558.3333333333334,-1.833333333333333,600,-6C641.6666666666666,-10.166666666666668,658.3333333333334,31.541666666666668,700,28C741.6666666666666,24.458333333333332,779.1666666666666,-12.375,800,-23" transform="matrix(1,0,0,1,0,19)"></path></g></svg>