<?xml version="1.0" standalone="no"?>
<svg xmlns:xlink="http://www.w3.org/1999/xlink" id="wave" style="transform:rotate(0deg); transition: 0.3s" viewBox="0 0 1440 190" version="1.1" xmlns="http://www.w3.org/2000/svg"><defs><linearGradient id="sw-gradient-0" x1="0" x2="0" y1="1" y2="0"><stop stop-color="rgba(243, 106, 62, 0.95)" offset="0%"/><stop stop-color="rgba(246, 209, 58, 1)" offset="100%"/></linearGradient></defs><path style="transform:translate(0, 0px); opacity:1" fill="url(#sw-gradient-0)" d="M0,114L48,98.2C96,82,192,51,288,38C384,25,480,32,576,50.7C672,70,768,101,864,101.3C960,101,1056,70,1152,50.7C1248,32,1344,25,1440,19C1536,13,1632,6,1728,15.8C1824,25,1920,51,2016,76C2112,101,2208,127,2304,129.8C2400,133,2496,114,2592,104.5C2688,95,2784,95,2880,79.2C2976,63,3072,32,3168,22.2C3264,13,3360,25,3456,50.7C3552,76,3648,114,3744,126.7C3840,139,3936,127,4032,110.8C4128,95,4224,76,4320,76C4416,76,4512,95,4608,88.7C4704,82,4800,51,4896,38C4992,25,5088,32,5184,53.8C5280,76,5376,114,5472,114C5568,114,5664,76,5760,79.2C5856,82,5952,127,6048,139.3C6144,152,6240,133,6336,107.7C6432,82,6528,51,6624,44.3C6720,38,6816,57,6864,66.5L6912,76L6912,190L6864,190C6816,190,6720,190,6624,190C6528,190,6432,190,6336,190C6240,190,6144,190,6048,190C5952,190,5856,190,5760,190C5664,190,5568,190,5472,190C5376,190,5280,190,5184,190C5088,190,4992,190,4896,190C4800,190,4704,190,4608,190C4512,190,4416,190,4320,190C4224,190,4128,190,4032,190C3936,190,3840,190,3744,190C3648,190,3552,190,3456,190C3360,190,3264,190,3168,190C3072,190,2976,190,2880,190C2784,190,2688,190,2592,190C2496,190,2400,190,2304,190C2208,190,2112,190,2016,190C1920,190,1824,190,1728,190C1632,190,1536,190,1440,190C1344,190,1248,190,1152,190C1056,190,960,190,864,190C768,190,672,190,576,190C480,190,384,190,288,190C192,190,96,190,48,190L0,190Z"/><defs><linearGradient id="sw-gradient-1" x1="0" x2="0" y1="1" y2="0"><stop stop-color="rgba(243, 106, 62, 1)" offset="0%"/><stop stop-color="rgba(255, 179, 11, 1)" offset="100%"/></linearGradient></defs><path style="transform:translate(0, 50px); opacity:0.9" fill="url(#sw-gradient-1)" d="M0,76L48,66.5C96,57,192,38,288,38C384,38,480,57,576,66.5C672,76,768,76,864,69.7C960,63,1056,51,1152,41.2C1248,32,1344,25,1440,31.7C1536,38,1632,57,1728,79.2C1824,101,1920,127,2016,120.3C2112,114,2208,76,2304,76C2400,76,2496,114,2592,117.2C2688,120,2784,89,2880,72.8C2976,57,3072,57,3168,57C3264,57,3360,57,3456,47.5C3552,38,3648,19,3744,25.3C3840,32,3936,63,4032,91.8C4128,120,4224,146,4320,145.7C4416,146,4512,120,4608,107.7C4704,95,4800,95,4896,91.8C4992,89,5088,82,5184,66.5C5280,51,5376,25,5472,34.8C5568,44,5664,89,5760,107.7C5856,127,5952,120,6048,110.8C6144,101,6240,89,6336,95C6432,101,6528,127,6624,142.5C6720,158,6816,165,6864,167.8L6912,171L6912,190L6864,190C6816,190,6720,190,6624,190C6528,190,6432,190,6336,190C6240,190,6144,190,6048,190C5952,190,5856,190,5760,190C5664,190,5568,190,5472,190C5376,190,5280,190,5184,190C5088,190,4992,190,4896,190C4800,190,4704,190,4608,190C4512,190,4416,190,4320,190C4224,190,4128,190,4032,190C3936,190,3840,190,3744,190C3648,190,3552,190,3456,190C3360,190,3264,190,3168,190C3072,190,2976,190,2880,190C2784,190,2688,190,2592,190C2496,190,2400,190,2304,190C2208,190,2112,190,2016,190C1920,190,1824,190,1728,190C1632,190,1536,190,1440,190C1344,190,1248,190,1152,190C1056,190,960,190,864,190C768,190,672,190,576,190C480,190,384,190,288,190C192,190,96,190,48,190L0,190Z"/><defs><linearGradient id="sw-gradient-2" x1="0" x2="0" y1="1" y2="0"><stop stop-color="rgba(243, 106, 62, 1)" offset="0%"/><stop stop-color="rgba(255, 179, 11, 1)" offset="100%"/></linearGradient></defs><path style="transform:translate(0, 100px); opacity:0.8" fill="url(#sw-gradient-2)" d="M0,0L48,9.5C96,19,192,38,288,50.7C384,63,480,70,576,79.2C672,89,768,101,864,101.3C960,101,1056,89,1152,69.7C1248,51,1344,25,1440,34.8C1536,44,1632,89,1728,95C1824,101,1920,70,2016,50.7C2112,32,2208,25,2304,44.3C2400,63,2496,108,2592,126.7C2688,146,2784,139,2880,123.5C2976,108,3072,82,3168,69.7C3264,57,3360,57,3456,57C3552,57,3648,57,3744,69.7C3840,82,3936,108,4032,104.5C4128,101,4224,70,4320,53.8C4416,38,4512,38,4608,53.8C4704,70,4800,101,4896,110.8C4992,120,5088,108,5184,91.8C5280,76,5376,57,5472,69.7C5568,82,5664,127,5760,136.2C5856,146,5952,120,6048,104.5C6144,89,6240,82,6336,91.8C6432,101,6528,127,6624,120.3C6720,114,6816,76,6864,57L6912,38L6912,190L6864,190C6816,190,6720,190,6624,190C6528,190,6432,190,6336,190C6240,190,6144,190,6048,190C5952,190,5856,190,5760,190C5664,190,5568,190,5472,190C5376,190,5280,190,5184,190C5088,190,4992,190,4896,190C4800,190,4704,190,4608,190C4512,190,4416,190,4320,190C4224,190,4128,190,4032,190C3936,190,3840,190,3744,190C3648,190,3552,190,3456,190C3360,190,3264,190,3168,190C3072,190,2976,190,2880,190C2784,190,2688,190,2592,190C2496,190,2400,190,2304,190C2208,190,2112,190,2016,190C1920,190,1824,190,1728,190C1632,190,1536,190,1440,190C1344,190,1248,190,1152,190C1056,190,960,190,864,190C768,190,672,190,576,190C480,190,384,190,288,190C192,190,96,190,48,190L0,190Z"/></svg>